<svg width="40" height="40" viewBox="0 0 40 40" fill="none" xmlns="http://www.w3.org/2000/svg">
<g filter="url(#filter0_d_3915_41713)">
<g filter="url(#filter1_d_3915_41713)">
<circle cx="20" cy="18" r="12" fill="#40D4CF"/>
</g>
<path d="M20.8654 13.7553L21.7454 15.5153C21.8654 15.7603 22.1854 15.9953 22.4554 16.0403L24.0504 16.3053C25.0704 16.4753 25.3104 17.2153 24.5754 17.9453L23.3354 19.1853C23.1254 19.3953 23.0104 19.8003 23.0754 20.0903L23.4304 21.6253C23.7104 22.8403 23.0654 23.3103 21.9904 22.6753L20.4954 21.7903C20.2254 21.6303 19.7804 21.6303 19.5054 21.7903L18.0104 22.6753C16.9404 23.3103 16.2904 22.8353 16.5704 21.6253L16.9254 20.0903C16.9904 19.8003 16.8754 19.3953 16.6654 19.1853L15.4254 17.9453C14.6954 17.2153 14.9304 16.4753 15.9504 16.3053L17.5454 16.0403C17.8104 15.9953 18.1304 15.7603 18.2504 15.5153L19.1304 13.7553C19.6104 12.8003 20.3904 12.8003 20.8654 13.7553Z" stroke="white" strokeLinecap="round" strokeLinejoin="round"/>
<path d="M20.8654 13.7553L21.7454 15.5153C21.8654 15.7603 22.1854 15.9953 22.4554 16.0403L24.0504 16.3053C25.0704 16.4753 25.3104 17.2153 24.5754 17.9453L23.3354 19.1853C23.1254 19.3953 23.0104 19.8003 23.0754 20.0903L23.4304 21.6253C23.7104 22.8403 23.0654 23.3103 21.9904 22.6753L20.4954 21.7903C20.2254 21.6303 19.7804 21.6303 19.5054 21.7903L18.0104 22.6753C16.9404 23.3103 16.2904 22.8353 16.5704 21.6253L16.9254 20.0903C16.9904 19.8003 16.8754 19.3953 16.6654 19.1853L15.4254 17.9453C14.6954 17.2153 14.9304 16.4753 15.9504 16.3053L17.5454 16.0403C17.8104 15.9953 18.1304 15.7603 18.2504 15.5153L19.1304 13.7553C19.6104 12.8003 20.3904 12.8003 20.8654 13.7553Z" fill="white"/>
</g>
<defs>
<filter id="filter0_d_3915_41713" x="0" y="0" width="40" height="40" filterUnits="userSpaceOnUse" color-interpolation-filters="sRGB">
<feFlood flood-opacity="0" result="BackgroundImageFix"/>
<feColorMatrix in="SourceAlpha" type="matrix" values="0 0 0 0 0 0 0 0 0 0 0 0 0 0 0 0 0 0 127 0" result="hardAlpha"/>
<feOffset dy="2"/>
<feGaussianBlur stdDeviation="4"/>
<feComposite in2="hardAlpha" operator="out"/>
<feColorMatrix type="matrix" values="0 0 0 0 0.180392 0 0 0 0 0.168627 0 0 0 0 0.160784 0 0 0 0.15 0"/>
<feBlend mode="normal" in2="BackgroundImageFix" result="effect1_dropShadow_3915_41713"/>
<feBlend mode="normal" in="SourceGraphic" in2="effect1_dropShadow_3915_41713" result="shape"/>
</filter>
<filter id="filter1_d_3915_41713" x="4" y="6" width="32" height="32" filterUnits="userSpaceOnUse" color-interpolation-filters="sRGB">
<feFlood flood-opacity="0" result="BackgroundImageFix"/>
<feColorMatrix in="SourceAlpha" type="matrix" values="0 0 0 0 0 0 0 0 0 0 0 0 0 0 0 0 0 0 127 0" result="hardAlpha"/>
<feOffset dy="4"/>
<feGaussianBlur stdDeviation="2"/>
<feComposite in2="hardAlpha" operator="out"/>
<feColorMatrix type="matrix" values="0 0 0 0 0.475936 0 0 0 0 0.469306 0 0 0 0 0.516667 0 0 0 0.25 0"/>
<feBlend mode="normal" in2="BackgroundImageFix" result="effect1_dropShadow_3915_41713"/>
<feBlend mode="normal" in="SourceGraphic" in2="effect1_dropShadow_3915_41713" result="shape"/>
</filter>
</defs>
</svg>
