<svg width="48" height="54" viewBox="0 0 48 54" fill="none" xmlns="http://www.w3.org/2000/svg">
<g filter="url(#filter0_d_3915_41737)">
<g filter="url(#filter1_d_3915_41737)">
<path d="M40 22C40 30.8366 29 43.3333 24 43.3333C19 43.3333 8 30.8366 8 22C8 13.1634 15.1634 6 24 6C32.8366 6 40 13.1634 40 22Z" fill="#FF6AA0"/>
<path d="M39.25 22C39.25 26.1622 36.6281 31.3285 33.2888 35.5125C31.632 37.5885 29.832 39.3796 28.1574 40.6441C26.4476 41.9352 24.9913 42.5833 24 42.5833C23.0087 42.5833 21.5524 41.9352 19.8426 40.6441C18.168 39.3796 16.368 37.5885 14.7112 35.5125C11.3719 31.3285 8.75 26.1622 8.75 22C8.75 13.5777 15.5777 6.75 24 6.75C32.4223 6.75 39.25 13.5777 39.25 22Z" stroke="white" stroke-width="1.5"/>
</g>
<path d="M24.9604 17.2831L25.9382 19.2387C26.0715 19.5109 26.4271 19.772 26.7271 19.822L28.4993 20.1165C29.6326 20.3054 29.8993 21.1276 29.0826 21.9387L27.7049 23.3165C27.4715 23.5498 27.3437 23.9998 27.416 24.322L27.8104 26.0276C28.1215 27.3776 27.4049 27.8998 26.2104 27.1943L24.5493 26.2109C24.2493 26.0331 23.7549 26.0331 23.4493 26.2109L21.7882 27.1943C20.5993 27.8998 19.8771 27.372 20.1882 26.0276L20.5826 24.322C20.6549 23.9998 20.5271 23.5498 20.2937 23.3165L18.916 21.9387C18.1049 21.1276 18.366 20.3054 19.4993 20.1165L21.2715 19.822C21.566 19.772 21.9215 19.5109 22.0549 19.2387L23.0326 17.2831C23.566 16.222 24.4326 16.222 24.9604 17.2831Z" stroke="white" stroke-linecap="round" stroke-linejoin="round"/>
<path d="M24.9614 17.2831L25.9392 19.2387C26.0725 19.5109 26.4281 19.772 26.7281 19.822L28.5003 20.1165C29.6336 20.3054 29.9003 21.1276 29.0836 21.9387L27.7058 23.3165C27.4725 23.5498 27.3447 23.9998 27.4169 24.322L27.8114 26.0276C28.1225 27.3776 27.4058 27.8998 26.2114 27.1942L24.5503 26.2109C24.2503 26.0331 23.7558 26.0331 23.4503 26.2109L21.7892 27.1942C20.6003 27.8998 19.8781 27.372 20.1892 26.0276L20.5836 24.322C20.6558 23.9998 20.5281 23.5498 20.2947 23.3165L18.9169 21.9387C18.1058 21.1276 18.3669 20.3054 19.5003 20.1165L21.2725 19.822C21.5669 19.772 21.9225 19.5109 22.0558 19.2387L23.0336 17.2831C23.5669 16.222 24.4336 16.222 24.9614 17.2831Z" fill="white"/>
</g>
<defs>
<filter id="filter0_d_3915_41737" x="0" y="0" width="48" height="53.333" filterUnits="userSpaceOnUse" color-interpolation-filters="sRGB">
<feFlood flood-opacity="0" result="BackgroundImageFix"/>
<feColorMatrix in="SourceAlpha" type="matrix" values="0 0 0 0 0 0 0 0 0 0 0 0 0 0 0 0 0 0 127 0" result="hardAlpha"/>
<feOffset dy="2"/>
<feGaussianBlur stdDeviation="4"/>
<feComposite in2="hardAlpha" operator="out"/>
<feColorMatrix type="matrix" values="0 0 0 0 0.180392 0 0 0 0 0.168627 0 0 0 0 0.160784 0 0 0 0.15 0"/>
<feBlend mode="normal" in2="BackgroundImageFix" result="effect1_dropShadow_3915_41737"/>
<feBlend mode="normal" in="SourceGraphic" in2="effect1_dropShadow_3915_41737" result="shape"/>
</filter>
<filter id="filter1_d_3915_41737" x="4" y="6" width="40" height="45.333" filterUnits="userSpaceOnUse" color-interpolation-filters="sRGB">
<feFlood flood-opacity="0" result="BackgroundImageFix"/>
<feColorMatrix in="SourceAlpha" type="matrix" values="0 0 0 0 0 0 0 0 0 0 0 0 0 0 0 0 0 0 127 0" result="hardAlpha"/>
<feOffset dy="4"/>
<feGaussianBlur stdDeviation="2"/>
<feComposite in2="hardAlpha" operator="out"/>
<feColorMatrix type="matrix" values="0 0 0 0 0.475936 0 0 0 0 0.469306 0 0 0 0 0.516667 0 0 0 0.25 0"/>
<feBlend mode="normal" in2="BackgroundImageFix" result="effect1_dropShadow_3915_41737"/>
<feBlend mode="normal" in="SourceGraphic" in2="effect1_dropShadow_3915_41737" result="shape"/>
</filter>
</defs>
</svg>
