<svg width="40" height="40" viewBox="0 0 40 40" fill="none" xmlns="http://www.w3.org/2000/svg">
<g filter="none">
<g filter="none">
<circle cx="20" cy="18" r="12" fill="#FF6AA0"/>
</g>
<path d="M18.125 19.875L16.25 21.75" stroke="white" strokeLinecap="round" strokeLinejoin="round"/>
<path d="M21.2344 13.3901L18.3121 16.3124C18.3121 16.3124 17.0116 15.6622 15.6215 16.7836C15.5805 16.8166 15.5469 16.8579 15.5228 16.9048C15.4988 16.9517 15.4849 17.0031 15.482 17.0557C15.4791 17.1084 15.4874 17.161 15.5062 17.2102C15.525 17.2595 15.5539 17.3042 15.5911 17.3415L20.6488 22.3991C20.6867 22.4371 20.7323 22.4665 20.7825 22.4853C20.8327 22.5042 20.8864 22.512 20.9399 22.5083C20.9934 22.5046 21.0455 22.4895 21.0926 22.4639C21.1398 22.4384 21.1809 22.403 21.2132 22.3601C21.6066 21.8372 22.2245 20.7623 21.6871 19.6874L24.6094 16.7651C24.6798 16.6948 24.7193 16.5994 24.7193 16.4999C24.7193 16.4005 24.6798 16.3051 24.6094 16.2348L21.7648 13.3901C21.6944 13.3198 21.5991 13.2803 21.4996 13.2803C21.4001 13.2803 21.3048 13.3198 21.2344 13.3901Z" fill="white" stroke="white" strokeLinecap="round" strokeLinejoin="round"/>
</g>
<defs>
<filter id="filter0_d_3915_41707" x="0" y="0" width="40" height="40" filterUnits="userSpaceOnUse" color-interpolation-filters="sRGB">
<feFlood flood-opacity="0" result="BackgroundImageFix"/>
<feColorMatrix in="SourceAlpha" type="matrix" values="0 0 0 0 0 0 0 0 0 0 0 0 0 0 0 0 0 0 127 0" result="hardAlpha"/>
<feOffset dy="2"/>
<feGaussianBlur stdDeviation="4"/>
<feComposite in2="hardAlpha" operator="out"/>
<feColorMatrix type="matrix" values="0 0 0 0 0.180392 0 0 0 0 0.168627 0 0 0 0 0.160784 0 0 0 0.15 0"/>
<feBlend mode="normal" in2="BackgroundImageFix" result="effect1_dropShadow_3915_41707"/>
<feBlend mode="normal" in="SourceGraphic" in2="effect1_dropShadow_3915_41707" result="shape"/>
</filter>
<filter id="filter1_d_3915_41707" x="4" y="6" width="32" height="32" filterUnits="userSpaceOnUse" color-interpolation-filters="sRGB">
<feFlood flood-opacity="0" result="BackgroundImageFix"/>
<feColorMatrix in="SourceAlpha" type="matrix" values="0 0 0 0 0 0 0 0 0 0 0 0 0 0 0 0 0 0 127 0" result="hardAlpha"/>
<feOffset dy="4"/>
<feGaussianBlur stdDeviation="2"/>
<feComposite in2="hardAlpha" operator="out"/>
<feColorMatrix type="matrix" values="0 0 0 0 0.475936 0 0 0 0 0.469306 0 0 0 0 0.516667 0 0 0 0.25 0"/>
<feBlend mode="normal" in2="BackgroundImageFix" result="effect1_dropShadow_3915_41707"/>
<feBlend mode="normal" in="SourceGraphic" in2="effect1_dropShadow_3915_41707" result="shape"/>
</filter>
</defs>
</svg>
