<svg width="32" height="32" viewBox="0 0 32 32" fill="none" xmlns="http://www.w3.org/2000/svg">
<path fill-rule="evenodd" clip-rule="evenodd" d="M4 13.3496C4.69036 13.3496 5.25 13.9093 5.25 14.5996V23.2496C5.25 25.873 7.37665 27.9996 10 27.9996H17.5C18.1904 27.9996 18.75 28.5593 18.75 29.2496C18.75 29.94 18.1904 30.4996 17.5 30.4996H10C5.99593 30.4996 2.75 27.2537 2.75 23.2496V14.5996C2.75 13.9093 3.30964 13.3496 4 13.3496ZM28 13.3496C28.6904 13.3496 29.25 13.9093 29.25 14.5996V16.9246C29.25 17.615 28.6904 18.1746 28 18.1746C27.3096 18.1746 26.75 17.615 26.75 16.9246V14.5996C26.75 13.9093 27.3096 13.3496 28 13.3496Z" fill="#F37165"/>
<path fill-rule="evenodd" clip-rule="evenodd" d="M4.05225 13.71C4.7426 13.71 5.30225 14.2696 5.30225 14.96V20.6934C5.30225 21.3837 4.7426 21.9434 4.05225 21.9434C3.36189 21.9434 2.80225 21.3837 2.80225 20.6934V14.96C2.80225 14.2696 3.36189 13.71 4.05225 13.71Z" fill="#F37165"/>
<path fill-rule="evenodd" clip-rule="evenodd" d="M11.6764 2.54225C11.7405 1.9034 12.2781 1.41699 12.9201 1.41699H19.1468C19.7888 1.41699 20.3265 1.9034 20.3905 2.54224L21.2842 11.4514C21.5962 14.6237 19.2217 17.2503 16.0402 17.2503C12.8643 17.2503 10.4702 14.6294 10.7828 11.4514L11.6764 2.54225ZM14.051 3.91699L13.2708 11.6961C13.2708 11.6965 13.2708 11.6968 13.2707 11.6972C13.1039 13.3987 14.3364 14.7503 16.0402 14.7503C17.7383 14.7503 18.9636 13.4043 18.7963 11.6972C18.7962 11.6968 18.7962 11.6964 18.7962 11.6961L18.0159 3.91699H14.051Z" fill="#F37165"/>
<path fill-rule="evenodd" clip-rule="evenodd" d="M18.167 1.82817C18.404 1.56636 18.7406 1.41699 19.0938 1.41699H23.1604C25.0351 1.41699 26.6232 1.76927 27.7919 2.84875C28.9441 3.91302 29.4525 5.47043 29.7052 7.29552C29.7073 7.31042 29.7091 7.32536 29.7106 7.34033L30.0843 11.0099C30.4239 14.423 27.8756 17.2503 24.4404 17.2503C21.5938 17.2503 19.0927 14.9746 18.7845 12.1492L18.7832 12.1379L17.8499 2.7912C17.8149 2.43981 17.93 2.08998 18.167 1.82817ZM20.4748 3.91699L21.2703 11.8833C21.4447 13.4556 22.8888 14.7503 24.4404 14.7503C26.3916 14.7503 27.7898 13.2048 27.5967 11.2585C27.5966 11.2581 27.5966 11.2578 27.5966 11.2574L27.2258 7.61651C26.998 5.98932 26.6011 5.15215 26.0956 4.6852C25.6042 4.23136 24.779 3.91699 23.1604 3.91699H20.4748Z" fill="#F37165"/>
<path fill-rule="evenodd" clip-rule="evenodd" d="M4.19522 2.84875C5.36388 1.76927 6.95199 1.41699 8.82669 1.41699H12.8933C13.2465 1.41699 13.5832 1.56638 13.8202 1.82823C14.0571 2.09008 14.1723 2.43996 14.1371 2.79137L13.4972 9.1909L13.2042 12.1343C13.2041 12.1348 13.2041 12.1353 13.204 12.1357C12.9274 14.9803 10.3985 17.2503 7.56001 17.2503C4.13002 17.2503 1.5627 14.4281 1.90282 11.0099L1.90311 11.007L2.27648 7.34033C2.27801 7.32536 2.2798 7.31042 2.28187 7.29552C2.53457 5.47043 3.04303 3.91302 4.19522 2.84875ZM4.76129 7.6165L4.39054 11.2574C4.39049 11.2578 4.39045 11.2583 4.3904 11.2587C4.19798 13.1998 5.60378 14.7503 7.56001 14.7503C9.12103 14.7503 10.5651 13.4478 10.7158 11.893L10.7161 11.8898L11.5121 3.91699H8.82669C7.20807 3.91699 6.38286 4.23136 5.89153 4.6852C5.386 5.15215 4.98909 5.98932 4.76129 7.6165Z" fill="#F37165"/>
<path fill-rule="evenodd" clip-rule="evenodd" d="M25.2667 22.25C23.6006 22.25 22.25 23.6006 22.25 25.2667C22.25 26.9327 23.6006 28.2834 25.2667 28.2834C26.9327 28.2834 28.2833 26.9327 28.2833 25.2667C28.2833 23.6006 26.9327 22.25 25.2667 22.25ZM19.75 25.2667C19.75 22.2199 22.2199 19.75 25.2667 19.75C28.3134 19.75 30.7833 22.2199 30.7833 25.2667C30.7833 28.3134 28.3134 30.7834 25.2667 30.7834C22.2199 30.7834 19.75 28.3134 19.75 25.2667Z" fill="#F37165"/>
<path fill-rule="evenodd" clip-rule="evenodd" d="M28.1161 28.1161C28.6043 27.628 29.3957 27.628 29.8839 28.1161L31.2172 29.4495C31.7054 29.9376 31.7054 30.7291 31.2172 31.2172C30.7291 31.7054 29.9376 31.7054 29.4495 31.2172L28.1161 29.8839C27.628 29.3957 27.628 28.6043 28.1161 28.1161Z" fill="#F37165"/>
</svg>
