<svg width="32" height="32" viewBox="0 0 32 32" fill="none" xmlns="http://www.w3.org/2000/svg">
<path d="M29.1067 21.56C27.0267 19.48 23.64 19.48 21.56 21.56C19.48 23.64 19.48 27.0267 21.56 29.1067C23.64 31.1867 27.0267 31.1867 29.1067 29.1067C31.1867 27.0267 31.1867 23.64 29.1067 21.56ZM28.0933 26.08C27.92 26.2667 27.6667 26.3733 27.3867 26.3733H26.4V27.4133C26.4 27.6933 26.2933 27.9333 26.1067 28.12C25.92 28.3067 25.68 28.4133 25.4 28.4133C24.8533 28.4133 24.4 27.96 24.4 27.4133V26.3733H23.4C22.8533 26.3733 22.4 25.9333 22.4 25.3733C22.4 24.8267 22.8533 24.3733 23.4 24.3733H24.4V23.4267C24.4 22.88 24.84 22.4267 25.4 22.4267C25.9467 22.4267 26.4 22.88 26.4 23.4267V24.3733H27.3867C27.9467 24.3733 28.3867 24.8267 28.3867 25.3733C28.3867 25.6533 28.28 25.9067 28.0933 26.08Z" fill="white"/>
<path fill-rule="evenodd" clip-rule="evenodd" d="M30 13.3714C30 13.9103 29.5572 14.3571 29.0233 14.3571C27.773 14.3571 26.7442 15.3954 26.7442 16.6571C26.7442 17.2441 26.9668 17.7826 27.3308 18.1909C27.3753 18.2407 27.2898 18.3828 27.2265 18.3615C26.5271 18.127 25.7784 18 25 18C21.134 18 18 21.134 18 25C18 25.3738 18.0293 25.7407 18.0857 26.0986C18.1949 26.791 17.7075 27.5 17.0065 27.5H13.3721V24.5429C13.3721 24.004 12.9293 23.5571 12.3953 23.5571C11.8614 23.5571 11.4186 24.004 11.4186 24.5429V27.5H9.48837C3.74512 27.5 2 25.7389 2 19.9429V19.2857C2 18.7469 2.44279 18.3 2.97674 18.3C4.22698 18.3 5.25581 17.2617 5.25581 16C5.25581 14.7383 4.22698 13.7 2.97674 13.7C2.44279 13.7 2 13.2531 2 12.7143V12.0571C2 6.26114 3.74512 4.5 9.48837 4.5H11.4186V7.45714C11.4186 7.996 11.8614 8.44286 12.3953 8.44286C12.9293 8.44286 13.3721 7.996 13.3721 7.45714V4.5H22.5116C28.2549 4.5 30 6.26114 30 12.0571V13.3714ZM12.3953 19.8377C12.9293 19.8377 13.3721 19.3909 13.3721 18.852V13.148C13.3721 12.6091 12.9293 12.1623 12.3953 12.1623C11.8614 12.1623 11.4186 12.6091 11.4186 13.148V18.852C11.4186 19.3909 11.8614 19.8377 12.3953 19.8377Z" fill="white"/>
</svg>
