<svg width="24" height="24" viewBox="0 0 24 24" fill="none" xmlns="http://www.w3.org/2000/svg">
    <path d="M14.7099 5.5303C15.0582 5.11639 15.3237 4.63562 15.4913 4.11559C15.6588 3.59556 15.7251 3.04653 15.6864 2.5C14.6172 2.589 13.6248 3.10754 12.9229 3.9439C12.5867 4.34475 12.332 4.81108 12.1738 5.31527C12.0156 5.81947 11.957 6.35128 12.0017 6.87921C12.5232 6.88369 13.0387 6.76436 13.5084 6.53045C13.978 6.29654 14.3891 5.95433 14.7099 5.5303ZM17.0313 12.5978C17.0375 11.8699 17.2234 11.1557 17.5715 10.5224C17.9196 9.88917 18.4185 9.35784 19.021 8.97857C18.6408 8.41358 18.1381 7.94773 17.5529 7.61795C16.9677 7.28817 16.316 7.10354 15.6495 7.0787C14.2125 6.92671 12.886 7.94314 12.1215 7.94314C11.3569 7.94314 10.2791 7.09769 9.08161 7.11669C8.29874 7.14329 7.53591 7.37867 6.86754 7.79987C6.19917 8.22108 5.64807 8.81374 5.26799 9.52003C3.64673 12.4268 4.85346 16.7491 6.47471 19.0954C7.21165 20.2448 8.13281 21.5462 9.34875 21.4987C10.5647 21.4512 10.9608 20.7198 12.3702 20.7198C13.7796 20.7198 14.2125 21.4987 15.41 21.4702C16.6075 21.4417 17.455 20.2923 18.2288 19.1429C18.7769 18.3084 19.2051 17.3965 19.5 16.4356C18.77 16.1145 18.1471 15.5799 17.7084 14.8979C17.2696 14.2159 17.0342 13.4163 17.0313 12.5978Z"
          fill="white"/>
</svg>
