<svg width="16" height="16" viewBox="0 0 16 16" fill="none" xmlns="http://www.w3.org/2000/svg">
<path d="M1.3335 1.33301L2.30683 1.47301C2.93349 1.55967 3.40016 2.11301 3.38683 2.74634L3.3335 5.33301M3.3335 5.33301L3.24016 9.47301C3.22016 10.2797 3.86016 10.9463 4.66683 10.9463H12.0002C12.7535 10.9463 13.3735 10.3597 13.4268 9.61301L13.8535 4.94634C13.9135 4.11301 13.2735 3.39967 12.4335 3.39967H3.3335Z" stroke="currentColor" stroke-miterlimit="10" stroke-linecap="round" stroke-linejoin="round"/>
<path d="M11.3332 14C11.7015 14 11.9998 13.7016 11.9998 13.3333C11.9998 12.965 11.7015 12.6667 11.3332 12.6667C10.9649 12.6667 10.6665 12.965 10.6665 13.3333C10.6665 13.7016 10.9649 14 11.3332 14Z" stroke="currentColor" stroke-linecap="round" stroke-linejoin="round"/>
<path d="M5.33317 14C5.70146 14 5.99984 13.7016 5.99984 13.3333C5.99984 12.965 5.70146 12.6667 5.33317 12.6667C4.96489 12.6667 4.6665 12.965 4.6665 13.3333C4.6665 13.7016 4.96489 14 5.33317 14Z" stroke="currentColor" stroke-linecap="round" stroke-linejoin="round"/>
<path d="M5.3335 7.33301H11.3335" stroke="currentColor" stroke-linecap="round" stroke-linejoin="round"/></svg> 