<svg width="20" height="20" viewBox="0 0 20 20" fill="none" xmlns="http://www.w3.org/2000/svg">
<path d="M1.66602 10.0003C1.66602 5.39795 5.39698 1.66699 9.99935 1.66699C14.6017 1.66699 18.3327 5.39795 18.3327 10.0003C18.3327 14.6027 14.6017 18.3337 9.99935 18.3337C5.39698 18.3337 1.66602 14.6027 1.66602 10.0003Z" fill="#BDBDBD"/>
<path fill-rule="evenodd" clip-rule="evenodd" d="M13.9232 6.07754C14.2487 6.40297 14.2487 6.93061 13.9232 7.25605L7.25689 13.9224C6.93145 14.2478 6.40381 14.2478 6.07838 13.9224C5.75294 13.597 5.75294 13.0693 6.07838 12.7439L12.7447 6.07754C13.0702 5.7521 13.5978 5.7521 13.9232 6.07754Z" fill="white"/>
<path fill-rule="evenodd" clip-rule="evenodd" d="M13.9225 13.9223C13.597 14.2477 13.0694 14.2477 12.744 13.9223L6.0776 7.25591C5.75216 6.93048 5.75217 6.40284 6.0776 6.0774C6.40304 5.75196 6.93068 5.75196 7.25611 6.0774L13.9225 12.7438C14.2479 13.0692 14.2479 13.5968 13.9225 13.9223Z" fill="white"/>
</svg>
