<svg width="20" height="20" viewBox="0 0 20 20" fill="none" xmlns="http://www.w3.org/2000/svg">
    <path fill-rule="evenodd" clip-rule="evenodd"
          d="M4.99805 16.875C4.99805 17.2202 5.27787 17.5 5.62305 17.5H15.6236C16.6591 17.5 17.4986 16.6605 17.4986 15.625V5.62492C17.4986 5.27975 17.2188 4.99992 16.8736 4.99992C16.5284 4.99992 16.2486 5.27975 16.2486 5.62492V15.625C16.2486 15.9702 15.9688 16.25 15.6236 16.25H5.62305C5.27787 16.25 4.99805 16.5298 4.99805 16.875Z"
          fill="currentColor"/>
    <path d="M13.1235 3.125H4.37305C3.68269 3.125 3.12305 3.68464 3.12305 4.375V13.125C3.12305 13.8154 3.68269 14.375 4.37305 14.375H13.1235C13.8139 14.375 14.3735 13.8154 14.3735 13.125V4.375C14.3735 3.68464 13.8139 3.125 13.1235 3.125Z"
          fill="currentColor"/>
    <path fill-rule="evenodd" clip-rule="evenodd"
          d="M2.49805 4.375C2.49805 3.33947 3.33751 2.5 4.37305 2.5H13.1235C14.159 2.5 14.9985 3.33947 14.9985 4.375V13.125C14.9985 14.1605 14.159 15 13.1235 15H4.37305C3.33751 15 2.49805 14.1605 2.49805 13.125V4.375ZM4.37305 3.75C4.02787 3.75 3.74805 4.02982 3.74805 4.375V13.125C3.74805 13.4702 4.02787 13.75 4.37305 13.75H13.1235C13.4687 13.75 13.7485 13.4702 13.7485 13.125V4.375C13.7485 4.02982 13.4687 3.75 13.1235 3.75H4.37305Z"
          fill="currentColor"/>
</svg>
