<svg width="16" height="16" viewBox="0 0 16 16" fill="none" xmlns="http://www.w3.org/2000/svg">
<path d="M5.3335 1.33301V3.33301" stroke="currentColor" stroke-miterlimit="10" stroke-linecap="round" stroke-linejoin="round"/>
<path d="M10.6665 1.33301V3.33301" stroke="currentColor" stroke-miterlimit="10" stroke-linecap="round" stroke-linejoin="round"/>
<path d="M14 5.66634V9.08634C13.4067 8.61301 12.6533 8.33301 11.8333 8.33301C11.0133 8.33301 10.2467 8.61966 9.64667 9.10632C8.84 9.73966 8.33333 10.733 8.33333 11.833C8.33333 12.4863 8.52001 13.113 8.84001 13.633C9.08667 14.0397 9.40666 14.393 9.78666 14.6663H5.33333C3 14.6663 2 13.333 2 11.333V5.66634C2 3.66634 3 2.33301 5.33333 2.33301H10.6667C13 2.33301 14 3.66634 14 5.66634Z" stroke="currentColor" stroke-miterlimit="10" stroke-linecap="round" stroke-linejoin="round"/>
<path d="M4.6665 7.33301H8.6665" stroke="currentColor" stroke-miterlimit="10" stroke-linecap="round" stroke-linejoin="round"/>
<path d="M4.6665 10.667H6.41317" stroke="currentColor" stroke-miterlimit="10" stroke-linecap="round" stroke-linejoin="round"/>
<path d="M15.3335 11.833C15.3335 12.4863 15.1468 13.113 14.8268 13.633C14.6402 13.953 14.4068 14.233 14.1335 14.4597C13.5202 15.0063 12.7202 15.333 11.8335 15.333C11.0668 15.333 10.3602 15.0863 9.78682 14.6663C9.40682 14.393 9.08684 14.0397 8.84017 13.633C8.52017 13.113 8.3335 12.4863 8.3335 11.833C8.3335 10.733 8.84016 9.73966 9.64683 9.10632C10.2468 8.61966 11.0135 8.33301 11.8335 8.33301C12.6535 8.33301 13.4068 8.61301 14.0002 9.08634C14.8135 9.72634 15.3335 10.7197 15.3335 11.833Z" stroke="currentColor" stroke-miterlimit="10" stroke-linecap="round" stroke-linejoin="round"/>
<path d="M11.8332 13.5003C11.8332 12.5803 12.5798 11.8337 13.4998 11.8337C12.5798 11.8337 11.8332 11.087 11.8332 10.167C11.8332 11.087 11.0865 11.8337 10.1665 11.8337C11.0865 11.8337 11.8332 12.5803 11.8332 13.5003Z" stroke="currentColor" stroke-linecap="round" stroke-linejoin="round"/></svg> 