<svg width="17" height="16" viewBox="0 0 17 16" fill="none" xmlns="http://www.w3.org/2000/svg">
<path d="M2.5 6.0734V9.92007C2.5 11.3334 2.5 11.3334 3.83333 12.2334L7.5 14.3534C8.05333 14.6734 8.95333 14.6734 9.5 14.3534L13.1667 12.2334C14.5 11.3334 14.5 11.3334 14.5 9.92674V6.0734C14.5 4.66674 14.5 4.66674 13.1667 3.76674L9.5 1.64674C8.95333 1.32674 8.05333 1.32674 7.5 1.64674L3.83333 3.76674C2.5 4.66674 2.5 4.66674 2.5 6.0734Z" stroke="white" strokeWidth="1.5" strokeLinecap="round" strokeLinejoin="round"/>
<path d="M8.5 10C9.60457 10 10.5 9.10457 10.5 8C10.5 6.89543 9.60457 6 8.5 6C7.39543 6 6.5 6.89543 6.5 8C6.5 9.10457 7.39543 10 8.5 10Z" stroke="white" strokeWidth="1.5" strokeLinecap="round" strokeLinejoin="round"/>
</svg>
