<svg width="24" height="24" viewBox="0 0 24 24" fill="none" xmlns="http://www.w3.org/2000/svg">
<path opacity="0.16" d="M12.516 19.3423C12.2327 19.4423 11.766 19.4423 11.4827 19.3423C9.06602 18.5173 3.66602 15.0757 3.66602 9.24232C3.66602 6.66732 5.74102 4.58398 8.29935 4.58398C9.81602 4.58398 11.1577 5.31732 11.9993 6.45065C12.841 5.31732 14.191 4.58398 15.6994 4.58398C18.2577 4.58398 20.3327 6.66732 20.3327 9.24232C20.3327 15.0757 14.9327 18.5173 12.516 19.3423Z" fill="#F37165"/>
<path d="M12.517 19.3423C12.2337 19.4423 11.767 19.4423 11.4837 19.3423C9.06699 18.5173 3.66699 15.0757 3.66699 9.24232C3.66699 6.66732 5.74199 4.58398 8.30033 4.58398C9.81699 4.58398 11.1587 5.31732 12.0003 6.45065C12.842 5.31732 14.192 4.58398 15.7003 4.58398C18.2587 4.58398 20.3337 6.66732 20.3337 9.24232C20.3337 15.0757 14.9337 18.5173 12.517 19.3423Z" stroke="#F37165" stroke-width="1.5" stroke-linecap="round" stroke-linejoin="round"/>
</svg>
