<svg width="16" height="16" viewBox="0 0 16 16" fill="none" xmlns="http://www.w3.org/2000/svg">
<path d="M11.3335 5.99967C11.3335 8.57967 9.0935 10.6663 6.3335 10.6663L5.7135 11.413L5.34683 11.853C5.0335 12.2264 4.43349 12.1463 4.22683 11.6997L3.3335 9.73299C2.12016 8.87966 1.3335 7.52634 1.3335 5.99967C1.3335 3.41967 3.5735 1.33301 6.3335 1.33301C8.34683 1.33301 10.0868 2.44635 10.8668 4.04635C11.1668 4.63968 11.3335 5.29967 11.3335 5.99967Z" stroke="currentColor" stroke-linecap="round" stroke-linejoin="round"/>
<path d="M14.6667 8.57353C14.6667 10.1002 13.88 11.4536 12.6667 12.3069L11.7734 14.2735C11.5667 14.7202 10.9667 14.8069 10.6534 14.4269L9.66671 13.2402C8.05337 13.2402 6.61338 12.5269 5.71338 11.4135L6.33337 10.6669C9.09337 10.6669 11.3334 8.5802 11.3334 6.0002C11.3334 5.3002 11.1667 4.64021 10.8667 4.04688C13.0467 4.54688 14.6667 6.38686 14.6667 8.57353Z" stroke="currentColor" stroke-linecap="round" stroke-linejoin="round"/>
<path d="M4.6665 6H7.99984" stroke="currentColor" stroke-linecap="round" stroke-linejoin="round"/></svg> 