<svg width="24" height="24" viewBox="0 0 24 24" fill="none" xmlns="http://www.w3.org/2000/svg">
    <path d="M12 3.875C13.6611 3.875 15.1975 4.18452 16.6091 4.80356C18.0208 5.42259 19.1367 6.26435 19.957 7.32883C20.7773 8.39332 21.1875 9.55442 21.1875 10.8121C21.1875 12.0699 20.7773 13.2326 19.957 14.3004C19.1367 15.3681 18.0225 16.2115 16.6143 16.8306C15.2061 17.4496 13.668 17.7591 12 17.7591C11.4736 17.7591 10.9302 17.7231 10.3696 17.651C7.93604 19.269 6.64062 20.0879 6.4834 20.1075C6.4082 20.1337 6.33643 20.1305 6.26807 20.0977C6.24072 20.0781 6.22021 20.0519 6.20654 20.0191C6.19287 19.9863 6.18604 19.9569 6.18604 19.9307V19.8914C6.22705 19.6359 6.53809 18.5714 7.11914 16.6979C5.7998 16.0691 4.7522 15.2355 3.97632 14.1972C3.20044 13.1589 2.8125 12.0306 2.8125 10.8121C2.8125 9.55442 3.22266 8.39332 4.04297 7.32883C4.86328 6.26435 5.97925 5.42259 7.39087 4.80356C8.80249 4.18452 10.3389 3.875 12 3.875Z"
          fill="black"/>
</svg>
