<svg width="32" height="32" viewBox="0 0 32 32" fill="none" xmlns="http://www.w3.org/2000/svg">
<path d="M2.66663 14.6663C2.66663 13.4264 2.66663 12.8064 2.80292 12.2977C3.17279 10.9174 4.25098 9.83917 5.63135 9.4693C6.14002 9.33301 6.76 9.33301 7.99996 9.33301H13.3333V19.9997H7.99996C6.76 19.9997 6.14002 19.9997 5.63135 19.8634C4.25098 19.4935 3.17279 18.4153 2.80292 17.0349C2.66663 16.5263 2.66663 15.9063 2.66663 14.6663V14.6663Z" stroke="currentColor" stroke-width="2" stroke-linecap="round" stroke-linejoin="round"/>
<path d="M13.3334 9.33333L21.6316 3.52455C23.2612 2.38388 24.0759 1.81355 24.7541 1.84322C25.3447 1.86907 25.8936 2.15485 26.2535 2.62385C26.6667 3.16245 26.6667 4.157 26.6667 6.1461V23.1872C26.6667 25.1763 26.6667 26.1709 26.2535 26.7095C25.8936 27.1785 25.3447 27.4643 24.7541 27.4901C24.0759 27.5198 23.2612 26.9494 21.6316 25.8088L13.3334 20V9.33333Z" stroke="currentColor" stroke-width="2" stroke-linecap="round" stroke-linejoin="round"/>
<path d="M8 20H12V26C12 27.1046 11.1046 28 10 28V28C8.89543 28 8 27.1046 8 26V20Z" stroke="currentColor" stroke-width="2" stroke-linecap="round" stroke-linejoin="round"/>
<path d="M26.6666 10.666V10.666C28.8758 10.666 30.6666 12.4569 30.6666 14.666V14.666C30.6666 16.8752 28.8758 18.666 26.6666 18.666V18.666L26.6666 10.666Z" stroke="currentColor" stroke-width="2" stroke-linecap="round" stroke-linejoin="round"/>
</svg>
