<svg width="20" height="20" viewBox="0 0 20 20" fill="none" xmlns="http://www.w3.org/2000/svg">
<path d="M8.33333 4.16602H4.5C3.39543 4.16602 2.5 5.06145 2.5 6.16602V8.33268C2.92654 8.33268 3.35307 8.4954 3.67851 8.82084C4.32938 9.47171 4.32938 10.527 3.67851 11.1779C3.35307 11.5033 2.92654 11.666 2.5 11.666V13.8327C2.5 14.9373 3.39543 15.8327 4.5 15.8327H8.33333M8.33333 4.16602H15.5C16.6046 4.16602 17.5 5.06145 17.5 6.16602V8.33268C17.0735 8.33268 16.6469 8.4954 16.3215 8.82084C15.6706 9.47171 15.6706 10.527 16.3215 11.1779C16.6469 11.5033 17.0735 11.666 17.5 11.666C17.5 12.2167 17.5 13.0122 17.5 13.8326C17.5 14.9372 16.6046 15.8327 15.5 15.8327H8.33333M8.33333 4.16602V15.8327" stroke="#F37165" strokeWidth="1.5" strokeLinejoin="round"/>
</svg>
