<svg xmlns="http://www.w3.org/2000/svg" width="14" height="15" viewBox="0 0 14 15" fill="none">
  <path d="M11.6673 5.31283V11.0003C11.6673 12.7503 10.6232 13.3337 9.33398 13.3337H4.66732C3.37815 13.3337 2.33398 12.7503 2.33398 11.0003V5.31283C2.33398 3.41699 3.37815 2.97949 4.66732 2.97949C4.66732 3.34116 4.81314 3.66782 5.0523 3.90699C5.29147 4.14616 5.61815 4.29199 5.97982 4.29199H8.02148C8.74482 4.29199 9.33398 3.70283 9.33398 2.97949C10.6232 2.97949 11.6673 3.41699 11.6673 5.31283Z" stroke="#F37165" stroke-linecap="round" stroke-linejoin="round"/>
  <path d="M9.33268 2.97949C9.33268 3.70283 8.74352 4.29199 8.02018 4.29199H5.97852C5.61685 4.29199 5.29017 4.14616 5.051 3.90699C4.81183 3.66782 4.66602 3.34116 4.66602 2.97949C4.66602 2.25616 5.25518 1.66699 5.97852 1.66699H8.02018C8.38185 1.66699 8.70853 1.81283 8.9477 2.05199C9.18686 2.29116 9.33268 2.61783 9.33268 2.97949Z" stroke="#F37165" stroke-linecap="round" stroke-linejoin="round"/>
  <path d="M4.66602 8.08301H6.99935" stroke="#F37165" stroke-linecap="round" stroke-linejoin="round"/>
  <path d="M4.66602 10.417H9.33268" stroke="#F37165" stroke-linecap="round" stroke-linejoin="round"/>
</svg>