<svg width="16" height="16" viewBox="0 0 16 16" fill="none" xmlns="http://www.w3.org/2000/svg">
<path d="M9.92638 12.786C9.92638 13.8245 9.06391 14.6663 8 14.6663C6.93609 14.6663 6.07362 13.8245 6.07362 12.786M8 1.33301C5.68924 1.33301 3.59009 2.77187 2.9729 4.98193C2.82452 5.51328 2.68633 6.04755 2.58251 6.52587C2.34021 7.64219 2.13821 9.13226 2.01324 10.1639C1.89563 11.1348 2.57341 12.0245 3.56857 12.1803C4.76143 12.3671 6.60226 12.6151 8 12.6151C9.39774 12.6151 11.2386 12.3671 12.4314 12.1803C13.4266 12.0245 14.1044 11.1348 13.9868 10.1639C13.8618 9.13226 13.6598 7.64219 13.4175 6.52587C13.3137 6.04755 13.1755 5.51328 13.0271 4.98193C12.4099 2.77187 10.3108 1.33301 8 1.33301Z" stroke="currentColor" stroke-linecap="round" stroke-linejoin="round"/></svg> 