<svg width="16" height="16" viewBox="0 0 16 16" fill="none" xmlns="http://www.w3.org/2000/svg">
<path d="M1.3335 7.33366C1.3335 5.8609 2.5274 4.66699 4.00016 4.66699H6.66683V10.0003H4.00016C2.5274 10.0003 1.3335 8.80642 1.3335 7.33366V7.33366Z" stroke="currentColor" stroke-linecap="round" stroke-linejoin="round"/>
<path d="M6.6665 4.66667L8.29809 3.52455C9.92763 2.38388 10.7424 1.81355 11.4206 1.84322C12.0112 1.86907 12.5601 2.15485 12.9199 2.62385C13.3332 3.16245 13.3332 4.157 13.3332 6.1461V8.52056C13.3332 10.5097 13.3332 11.5042 12.9199 12.0428C12.5601 12.5118 12.0112 12.7976 11.4206 12.8234C10.7424 12.8531 9.92763 12.2828 8.29809 11.1421L6.6665 10V4.66667Z" stroke="currentColor" stroke-linecap="round" stroke-linejoin="round"/>
<path d="M4 10H6V13C6 13.5523 5.55228 14 5 14V14C4.44772 14 4 13.5523 4 13V10Z" stroke="currentColor" stroke-linecap="round" stroke-linejoin="round"/>
<path d="M13.3335 5.33301V5.33301C14.4381 5.33301 15.3335 6.22844 15.3335 7.33301V7.33301C15.3335 8.43758 14.4381 9.33301 13.3335 9.33301V9.33301L13.3335 5.33301Z" stroke="currentColor" stroke-linecap="round" stroke-linejoin="round"/></svg> 