<svg width="32" height="32" viewBox="0 0 32 32" fill="none" xmlns="http://www.w3.org/2000/svg">
<path d="M19.8528 25.573C19.8528 27.6499 18.1278 29.3337 16 29.3337C13.8722 29.3337 12.1472 27.6499 12.1472 25.573M16 2.66699C11.3785 2.66699 7.18017 5.54472 5.94581 9.96483C5.64904 11.0275 5.37265 12.0961 5.16501 13.0527C4.68042 15.2853 4.27642 18.2655 4.02648 20.3288C3.79127 22.2707 5.14681 24.05 7.13715 24.3616C9.52287 24.7352 13.2045 25.2311 16 25.2311C18.7955 25.2311 22.4771 24.7352 24.8629 24.3616C26.8532 24.05 28.2087 22.2707 27.9735 20.3288C27.7236 18.2655 27.3196 15.2853 26.835 13.0527C26.6273 12.0961 26.351 11.0275 26.0542 9.96483C24.8198 5.54472 20.6215 2.66699 16 2.66699Z" stroke="currentColor" strokeWidth="2" strokeLinecap="round" strokeLinejoin="round"/>
</svg>
