<svg width="25" height="25" viewBox="0 0 25 25" fill="none" xmlns="http://www.w3.org/2000/svg">
<path d="M17.5 21.5H7.5C3.5 21.5 2.5 20.5 2.5 16.5V8.5C2.5 4.5 3.5 3.5 7.5 3.5H17.5C21.5 3.5 22.5 4.5 22.5 8.5V16.5C22.5 20.5 21.5 21.5 17.5 21.5Z" stroke="#757575" strokeLinecap="round" strokeLinejoin="round"/>
<path d="M14.5 8.5H19.5" stroke="#757575" strokeLinecap="round" strokeLinejoin="round"/>
<path d="M15.5 12.5H19.5" stroke="#757575" strokeLinecap="round" strokeLinejoin="round"/>
<path d="M17.5 16.5H19.5" stroke="#757575" strokeLinecap="round" strokeLinejoin="round"/>
<path d="M8.99994 11.7899C9.99958 11.7899 10.8099 10.9796 10.8099 9.97992C10.8099 8.98029 9.99958 8.16992 8.99994 8.16992C8.00031 8.16992 7.18994 8.98029 7.18994 9.97992C7.18994 10.9796 8.00031 11.7899 8.99994 11.7899Z" stroke="#757575" strokeLinecap="round" strokeLinejoin="round"/>
<path d="M12.5 16.8298C12.36 15.3798 11.21 14.2398 9.76 14.1098C9.26 14.0598 8.75 14.0598 8.24 14.1098C6.79 14.2498 5.64 15.3798 5.5 16.8298" stroke="#757575" strokeLinecap="round" strokeLinejoin="round"/>
</svg>
