<svg width="16" height="17" viewBox="0 0 16 17" fill="none" xmlns="http://www.w3.org/2000/svg">
    <path d="M5.77977 8.30126C6.29842 9.3616 7.15792 10.2172 8.2206 10.731C8.29835 10.7678 8.38436 10.7838 8.47015 10.7773C8.55595 10.7708 8.63857 10.7421 8.7099 10.694L10.2746 9.65059C10.3438 9.60444 10.4235 9.57629 10.5063 9.56868C10.5891 9.56107 10.6725 9.57425 10.749 9.60701L13.6763 10.8616C13.7757 10.9038 13.8588 10.9772 13.9128 11.0708C13.9669 11.1643 13.9892 11.2729 13.9762 11.3801C13.8837 12.1041 13.5304 12.7696 12.9826 13.2519C12.4347 13.7342 11.7299 14.0003 11 14.0003C8.74566 14.0003 6.58365 13.1048 4.98959 11.5107C3.39553 9.91665 2.5 7.75465 2.5 5.50031C2.50004 4.77041 2.76612 4.06556 3.24843 3.51773C3.73073 2.96989 4.39618 2.61664 5.12019 2.52412C5.22745 2.51114 5.33602 2.53337 5.42955 2.58746C5.52307 2.64155 5.59649 2.72457 5.63873 2.82401L6.89439 5.75387C6.92687 5.82966 6.9401 5.9123 6.93291 5.99443C6.92572 6.07657 6.89833 6.15565 6.85318 6.22464L5.81341 7.81337C5.76608 7.88484 5.7381 7.96736 5.73221 8.05288C5.72631 8.13839 5.7427 8.22397 5.77977 8.30126V8.30126Z"
          stroke="currentColor" stroke-linecap="round" stroke-linejoin="round"/>
</svg>
