<svg width="61" height="60" viewBox="0 0 61 60" fill="none" xmlns="http://www.w3.org/2000/svg">
<g id="vuesax/linear/receipt-edit">
<path id="Vector" d="M51.75 28.25V17.6C51.75 7.52502 49.4 5 39.95 5H21.05C11.6 5 9.25 7.52502 9.25 17.6V45.75C9.25 52.4 12.9 53.975 17.325 49.225L17.35 49.2C19.4 47.025 22.525 47.2 24.3 49.575L26.825 52.95" stroke="#F37165" stroke-width="2.5" stroke-linecap="round" stroke-linejoin="round"/>
<path id="Vector_2" d="M20.5 17.5H40.5" stroke="#F37165" stroke-width="2.5" stroke-linecap="round" stroke-linejoin="round"/>
<path id="Vector_3" d="M23 27.5H38" stroke="#F37165" stroke-width="2.5" stroke-linecap="round" stroke-linejoin="round"/>
<g id="Group">
<path id="Vector_4" d="M46.0275 36.9257L37.1776 45.7757C36.8276 46.1257 36.5025 46.7757 36.4275 47.2507L35.9525 50.6257C35.7775 51.8507 36.6275 52.7007 37.8525 52.5257L41.2276 52.0507C41.7026 51.9757 42.3775 51.6507 42.7025 51.3007L51.5526 42.4507C53.0776 40.9257 53.8026 39.1507 51.5526 36.9007C49.3276 34.6757 47.5525 35.4007 46.0275 36.9257Z" stroke="#F37165" stroke-width="2.5" stroke-miterlimit="10" stroke-linecap="round" stroke-linejoin="round"/>
<path id="Vector_5" d="M44.748 38.2007C45.498 40.9007 47.598 43.0007 50.298 43.7507" stroke="#F37165" stroke-width="2.5" stroke-miterlimit="10" stroke-linecap="round" stroke-linejoin="round"/>
</g>
</g>
</svg>
