<svg width="32" height="32" viewBox="0 0 32 32" fill="none" xmlns="http://www.w3.org/2000/svg">
<g id="vuesax/bold/calendar-add">
<g id="calendar-add">
<path id="Vector" d="M22.3333 4.74699V2.66699C22.3333 2.12033 21.88 1.66699 21.3333 1.66699C20.7866 1.66699 20.3333 2.12033 20.3333 2.66699V4.66699H11.6666V2.66699C11.6666 2.12033 11.2133 1.66699 10.6666 1.66699C10.12 1.66699 9.66665 2.12033 9.66665 2.66699V4.74699C6.06665 5.08033 4.31998 7.22699 4.05331 10.4137C4.02665 10.8003 4.34665 11.1203 4.71998 11.1203H27.28C27.6666 11.1203 27.9866 10.787 27.9466 10.4137C27.68 7.22699 25.9333 5.08033 22.3333 4.74699Z" fill="white"/>
<path id="Vector_2" d="M26.6667 13.1201H5.33333C4.6 13.1201 4 13.7201 4 14.4535V22.6668C4 26.6668 6 29.3335 10.6667 29.3335H17.24C18.16 29.3335 18.8 28.4401 18.5067 27.5735C18.24 26.8001 18.0133 25.9468 18.0133 25.3335C18.0133 21.2935 21.3067 18.0001 25.3467 18.0001C25.7333 18.0001 26.12 18.0268 26.4933 18.0935C27.2933 18.2134 28.0133 17.5868 28.0133 16.7868V14.4668C28 13.7201 27.4 13.1201 26.6667 13.1201ZM12.28 23.6134C12.1467 23.7334 12 23.8268 11.84 23.8935C11.68 23.9601 11.5067 24.0001 11.3333 24.0001C11.16 24.0001 10.9867 23.9601 10.8267 23.8935C10.6667 23.8268 10.52 23.7334 10.3867 23.6134C10.1467 23.3601 10 23.0135 10 22.6668C10 22.5868 10.0133 22.4935 10.0267 22.4135C10.04 22.3201 10.0667 22.2401 10.1067 22.1601C10.1333 22.0801 10.1733 22.0001 10.2267 21.9201C10.2667 21.8535 10.3333 21.7868 10.3867 21.7201C10.52 21.6001 10.6667 21.5068 10.8267 21.4401C11.1467 21.3068 11.52 21.3068 11.84 21.4401C12 21.5068 12.1467 21.6001 12.28 21.7201C12.3333 21.7868 12.4 21.8535 12.44 21.9201C12.4933 22.0001 12.5333 22.0801 12.56 22.1601C12.6 22.2401 12.6267 22.3201 12.64 22.4135C12.6533 22.4935 12.6667 22.5868 12.6667 22.6668C12.6667 23.0135 12.52 23.3601 12.28 23.6134ZM12.28 18.9468C12.1467 19.0668 12 19.1601 11.84 19.2268C11.68 19.2935 11.5067 19.3335 11.3333 19.3335C11.16 19.3335 10.9867 19.2935 10.8267 19.2268C10.6533 19.1601 10.52 19.0668 10.3867 18.9468C10.1467 18.6935 10 18.3468 10 18.0001C10 17.6535 10.1467 17.3068 10.3867 17.0535C10.52 16.9335 10.6667 16.8401 10.8267 16.7735C11.1467 16.6401 11.52 16.6401 11.84 16.7735C12 16.8401 12.1467 16.9335 12.28 17.0535C12.3333 17.1201 12.4 17.1868 12.44 17.2534C12.4933 17.3334 12.5333 17.4135 12.56 17.4935C12.6 17.5735 12.6267 17.6535 12.64 17.7335C12.6533 17.8268 12.6667 17.9201 12.6667 18.0001C12.6667 18.3468 12.52 18.6935 12.28 18.9468ZM16.9467 18.9468C16.6933 19.1868 16.36 19.3335 16 19.3335C15.8267 19.3335 15.6533 19.2935 15.4933 19.2268C15.32 19.1601 15.1867 19.0668 15.0533 18.9468C14.8133 18.6935 14.6667 18.3468 14.6667 18.0001C14.6667 17.9201 14.68 17.8268 14.6933 17.7335C14.7067 17.6535 14.7333 17.5735 14.7733 17.4935C14.8 17.4135 14.84 17.3334 14.8933 17.2534C14.9467 17.1868 15 17.1201 15.0533 17.0535C15.5467 16.5601 16.44 16.5601 16.9467 17.0535C17 17.1201 17.0533 17.1868 17.1067 17.2534C17.16 17.3334 17.2 17.4135 17.2267 17.4935C17.2667 17.5735 17.2933 17.6535 17.3067 17.7335C17.32 17.8268 17.3333 17.9201 17.3333 18.0001C17.3333 18.3468 17.1867 18.6935 16.9467 18.9468Z" fill="white"/>
<path id="Vector_3" d="M29.1067 21.56C27.0267 19.48 23.64 19.48 21.56 21.56C19.48 23.64 19.48 27.0267 21.56 29.1067C23.64 31.1867 27.0267 31.1867 29.1067 29.1067C31.1867 27.0267 31.1867 23.64 29.1067 21.56ZM28.0933 26.08C27.92 26.2667 27.6667 26.3733 27.3867 26.3733H26.4V27.4133C26.4 27.6933 26.2933 27.9333 26.1067 28.12C25.92 28.3067 25.68 28.4133 25.4 28.4133C24.8533 28.4133 24.4 27.96 24.4 27.4133V26.3733H23.4C22.8533 26.3733 22.4 25.9333 22.4 25.3733C22.4 24.8267 22.8533 24.3733 23.4 24.3733H24.4V23.4267C24.4 22.88 24.84 22.4267 25.4 22.4267C25.9467 22.4267 26.4 22.88 26.4 23.4267V24.3733H27.3867C27.9467 24.3733 28.3867 24.8267 28.3867 25.3733C28.3867 25.6533 28.28 25.9067 28.0933 26.08Z" fill="white"/>
</g>
</g>
</svg>
