<svg width="16" height="16" viewBox="0 0 16 16" fill="none" xmlns="http://www.w3.org/2000/svg">
<path d="M6.43311 9.1996L7.50644 10.0329C7.64644 10.1729 7.95978 10.2396 8.16644 10.2396H9.48644C9.89977 10.2396 10.3531 9.92624 10.4598 9.51291L11.2931 6.98622C11.4664 6.49955 11.1531 6.08623 10.6331 6.08623H9.24644C9.03977 6.08623 8.86645 5.9129 8.89978 5.6729L9.07311 4.56621C9.13978 4.25288 8.9331 3.9062 8.61977 3.8062C8.33977 3.69954 7.99311 3.83953 7.85977 4.04619L6.43978 6.15956" stroke="currentColor" stroke-miterlimit="10"/>
<path d="M4.6665 9.19987V5.80648C4.6665 5.31981 4.87317 5.14648 5.35983 5.14648H5.7065C6.19317 5.14648 6.39984 5.31981 6.39984 5.80648V9.19987C6.39984 9.68654 6.19317 9.85986 5.7065 9.85986H5.35983C4.87317 9.85986 4.6665 9.68654 4.6665 9.19987Z" stroke="currentColor" stroke-linecap="round" stroke-linejoin="round"/>
<path d="M12 12.5732H11.4933C10.96 12.5732 10.4533 12.7798 10.08 13.1532L8.94 14.2799C8.42 14.7932 7.57333 14.7932 7.05333 14.2799L5.91333 13.1532C5.54 12.7798 5.02667 12.5732 4.5 12.5732H4C2.89333 12.5732 2 11.6865 2 10.5932V3.31982C2 2.22649 2.89333 1.33984 4 1.33984H12C13.1067 1.33984 14 2.22649 14 3.31982V10.5932C14 11.6798 13.1067 12.5732 12 12.5732Z" stroke="currentColor" stroke-miterlimit="10" stroke-linecap="round" stroke-linejoin="round"/></svg> 