<svg width="32" height="32" viewBox="0 0 32 32" fill="none" xmlns="http://www.w3.org/2000/svg">
<path d="M4 12.1468V19.8401C4 22.6668 4 22.6668 6.66667 24.4668L14 28.7068C15.1067 29.3468 16.9067 29.3468 18 28.7068L25.3333 24.4668C28 22.6668 28 22.6668 28 19.8535V12.1468C28 9.33348 28 9.33348 25.3333 7.53348L18 3.29348C16.9067 2.65348 15.1067 2.65348 14 3.29348L6.66667 7.53348C4 9.33348 4 9.33348 4 12.1468Z" stroke="currentColor" strokeWidth="2" strokeLinecap="round" strokeLinejoin="round"/>
<path d="M16 20C18.2091 20 20 18.2091 20 16C20 13.7909 18.2091 12 16 12C13.7909 12 12 13.7909 12 16C12 18.2091 13.7909 20 16 20Z" stroke="currentColor" strokeWidth="2" strokeLinecap="round" strokeLinejoin="round"/>
</svg>
