<svg width="14" height="15" viewBox="0 0 14 15" fill="none" xmlns="http://www.w3.org/2000/svg">
    <path d="M1.75586 7.04492V9.66409C1.75586 12.2833 2.80586 13.3333 5.42503 13.3333H8.56919C11.1884 13.3333 12.2384 12.2833 12.2384 9.66409V7.04492"
          stroke="currentColor" stroke-linecap="round" stroke-linejoin="round"/>
    <path d="M6.99963 7.49935C8.06713 7.49935 8.85463 6.63018 8.74963 5.56268L8.36463 1.66602H5.64046L5.24963 5.56268C5.14463 6.63018 5.93213 7.49935 6.99963 7.49935Z"
          stroke="currentColor" stroke-linecap="round" stroke-linejoin="round"/>
    <path d="M10.681 7.49935C11.8593 7.49935 12.7226 6.54268 12.606 5.37018L12.4426 3.76602C12.2326 2.24935 11.6493 1.66602 10.121 1.66602H8.3418L8.75013 5.75518C8.8493 6.71768 9.71846 7.49935 10.681 7.49935Z"
          stroke="currentColor" stroke-linecap="round" stroke-linejoin="round"/>
    <path d="M3.28908 7.49935C4.25158 7.49935 5.12074 6.71768 5.21408 5.75518L5.34241 4.46602L5.62241 1.66602H3.84324C2.31491 1.66602 1.73158 2.24935 1.52158 3.76602L1.36408 5.37018C1.24741 6.54268 2.11074 7.49935 3.28908 7.49935Z"
          stroke="currentColor" stroke-linecap="round" stroke-linejoin="round"/>
    <path d="M6.99935 10.416C6.02518 10.416 5.54102 10.9002 5.54102 11.8743V13.3327H8.45768V11.8743C8.45768 10.9002 7.97352 10.416 6.99935 10.416Z"
          stroke="currentColor" stroke-linecap="round" stroke-linejoin="round"/>
</svg>
