<svg width="131" height="16" viewBox="0 0 131 16" fill="none" xmlns="http://www.w3.org/2000/svg">
  <path
    d="M36.9264 9.42388H44.0338V6.59487H36.9264V2.97355H44.1923V0.144531H34.0088V15.8696H44.2156V13.0639H36.9264V9.42388Z"
    fill="currentColor" />
  <path
    d="M25.8852 6.52887H19.8777V0.148438H16.9834V15.8688H19.8777V9.31592H25.8852V15.8688H28.8028V0.148438H25.8852V6.52887Z"
    fill="currentColor" />
  <path
    d="M109.208 6.57152C107.405 6.40839 106.016 6.18935 105.927 4.95894C105.899 4.63269 105.927 4.16662 106.239 3.78444C106.831 3.05738 107.973 2.77775 108.849 2.75911C110.108 2.76377 111.469 3.25314 111.744 4.43228L111.804 4.68861L114.657 4.58141L114.605 4.23653C114.149 1.10923 111.278 0 108.957 0C106.92 0 105.004 0.810952 103.956 2.12525C103.252 3.00612 102.935 4.07341 103.038 5.21527C103.341 8.84591 106.943 9.19546 108.882 9.38189C110.495 9.53569 111.851 9.73609 112.061 10.6263C112.098 10.7941 112.121 10.9432 112.121 11.069C112.121 12.3927 110.457 13.2129 108.915 13.2129C107.507 13.2129 105.969 12.5185 105.839 11.358L105.797 10.836L102.884 10.8919L102.926 11.6423C103.233 14.4713 106.225 16 108.891 16C111.911 16 115.039 14.1637 115.039 11.0923C115.039 10.7847 114.997 10.3979 114.918 10.0251C114.288 7.51297 111.688 6.87446 109.213 6.57618L109.208 6.57152Z"
    fill="currentColor" />
  <path
    d="M68.1431 0.130859L62.7461 15.8559H65.8734L67.3462 11.4283H72.9716L74.449 15.8699H77.5763L72.1792 0.144841L68.1385 0.130859H68.1431ZM68.2317 8.76237L70.1565 2.96919L72.0814 8.76237H68.227H68.2317Z"
    fill="currentColor" />
  <path d="M98.8059 0.130859H95.9116V15.8559H98.8059V0.130859Z" fill="currentColor" />
  <path d="M12.3787 0.148438H0V2.97279H4.73056V15.9341H7.62482V2.97279H12.3787V0.148438Z" fill="currentColor" />
  <path
    d="M57.4285 10.4298C59.563 9.56295 60.5557 7.47498 60.5557 5.50818C60.5557 2.84229 58.7008 0.148438 55.1494 0.148438H49.0952V15.8735H52.0128V10.8493H54.2965L57.545 15.8735H60.9472L57.4285 10.4345V10.4298ZM55.1494 8.06221H52.0081V2.97745H55.1494C56.9018 2.97745 57.6848 4.25912 57.6848 5.53148C57.6848 6.80384 56.8925 8.06221 55.1494 8.06221Z"
    fill="currentColor" />
  <path
    d="M86.4272 0.148438H80.373V15.8735H83.2906V10.8493H86.4319C90.1464 10.8493 91.8382 8.08086 91.8382 5.50818C91.8382 2.93551 89.9833 0.148438 86.4319 0.148438H86.4272ZM86.4272 8.06221H83.286V2.97745H86.4272C88.1796 2.97745 88.9626 4.25912 88.9626 5.53148C88.9626 6.80384 88.1703 8.06221 86.4272 8.06221Z"
    fill="currentColor" />
  <path d="M130.377 0.148438H117.994V2.97279H122.724V15.9341H125.618V2.97279H130.377V0.148438Z" fill="currentColor" />
</svg>