<svg width="28" height="28" viewBox="0 0 28 28" fill="none" xmlns="http://www.w3.org/2000/svg">
<ellipse cx="14.0001" cy="14" rx="14.0001" ry="14" fill="black"/>
<path d="M15.5231 8.23285C15.7797 7.92787 15.9754 7.57361 16.0988 7.19044C16.2223 6.80726 16.2712 6.4027 16.2426 6C15.4548 6.06558 14.7235 6.44766 14.2063 7.06393C13.9587 7.35929 13.771 7.7029 13.6544 8.07441C13.5378 8.44592 13.4947 8.83778 13.5276 9.22679C13.9118 9.23009 14.2917 9.14216 14.6377 8.9698C14.9838 8.79745 15.2867 8.54529 15.5231 8.23285ZM17.2336 13.4405C17.2381 12.9042 17.3751 12.3778 17.6316 11.9112C17.8882 11.4446 18.2557 11.0531 18.6997 10.7737C18.4195 10.3574 18.0491 10.0141 17.6179 9.77112C17.1867 9.52813 16.7065 9.39208 16.2154 9.37378C15.1566 9.26178 14.1792 10.0107 13.6158 10.0107C13.0524 10.0107 12.2583 9.38778 11.3759 9.40177C10.7991 9.42137 10.237 9.59481 9.7445 9.90517C9.25202 10.2155 8.84594 10.6522 8.56588 11.1727C7.37128 13.3145 8.26044 16.4993 9.45505 18.2282C9.99805 19.0751 10.6768 20.0341 11.5728 19.9991C12.4687 19.9641 12.7606 19.4251 13.7991 19.4251C14.8376 19.4251 15.1566 19.9991 16.039 19.9781C16.9213 19.9571 17.5458 19.1101 18.116 18.2632C18.5198 17.6483 18.8353 16.9764 19.0526 16.2683C18.5147 16.0317 18.0558 15.6379 17.7325 15.1353C17.4092 14.6328 17.2358 14.0436 17.2336 13.4405Z" fill="white"/>
</svg>
