<svg width="28" height="29" viewBox="0 0 28 29" fill="none" xmlns="http://www.w3.org/2000/svg">
<ellipse cx="14.0001" cy="14.0962" rx="14.0001" ry="14" fill="white"/>
<path d="M19.7202 12.8576H19.2503V12.8334H14.0003V15.1667H17.297C16.8161 16.525 15.5237 17.5001 14.0003 17.5001C12.0675 17.5001 10.5003 15.933 10.5003 14.0001C10.5003 12.0672 12.0675 10.5001 14.0003 10.5001C14.8925 10.5001 15.7042 10.8367 16.3223 11.3865L17.9722 9.7365C16.9304 8.76554 15.5368 8.16675 14.0003 8.16675C10.7789 8.16675 8.16699 10.7786 8.16699 14.0001C8.16699 17.2215 10.7789 19.8334 14.0003 19.8334C17.2218 19.8334 19.8337 17.2215 19.8337 14.0001C19.8337 13.609 19.7934 13.2272 19.7202 12.8576Z" fill="#FFC107"/>
<path d="M8.83887 11.285L10.7554 12.6905C11.274 11.4066 12.5299 10.5001 13.9996 10.5001C14.8918 10.5001 15.7035 10.8367 16.3216 11.3865L17.9715 9.7365C16.9297 8.76554 15.5361 8.16675 13.9996 8.16675C11.759 8.16675 9.81595 9.43171 8.83887 11.285Z" fill="#FF3D00"/>
<path d="M13.9998 19.8333C15.5065 19.8333 16.8756 19.2567 17.9107 18.319L16.1053 16.7912C15.5 17.2516 14.7603 17.5006 13.9998 17.5C12.4825 17.5 11.1942 16.5325 10.7089 15.1824L8.80664 16.648C9.77206 18.5371 11.7326 19.8333 13.9998 19.8333Z" fill="#4CAF50"/>
<path d="M19.7199 12.8575H19.25V12.8333H14V15.1666H17.2967C17.0666 15.813 16.6522 16.3779 16.1047 16.7915L16.1055 16.7909L17.911 18.3186C17.7832 18.4347 19.8333 16.9166 19.8333 13.9999C19.8333 13.6088 19.7931 13.227 19.7199 12.8575Z" fill="#1976D2"/>
</svg>
