<svg width="28" height="29" viewBox="0 0 28 29" fill="none" xmlns="http://www.w3.org/2000/svg">
<ellipse cx="14.0001" cy="14.0962" rx="14.0001" ry="14" fill="#FEE500"/>
<path d="M13.9154 7C15.3465 7 16.6702 7.26666 17.8863 7.79999C19.1025 8.33331 20.0639 9.05852 20.7707 9.97561C21.4774 10.8927 21.8308 11.893 21.8308 12.9766C21.8308 14.0602 21.4774 15.0619 20.7707 15.9819C20.0639 16.9018 19.104 17.6284 17.8907 18.1617C16.6775 18.695 15.3524 18.9617 13.9154 18.9617C13.4619 18.9617 12.9937 18.9307 12.5108 18.8686C10.4141 20.2626 9.29808 20.968 9.16262 20.985C9.09784 21.0075 9.036 21.0047 8.9771 20.9765C8.95355 20.9596 8.93588 20.937 8.9241 20.9088C8.91232 20.8805 8.90643 20.8551 8.90643 20.8326V20.7987C8.94177 20.5786 9.20974 19.6615 9.71034 18.0474C8.57368 17.5056 7.67112 16.7875 7.00267 15.893C6.33422 14.9985 6 14.0263 6 12.9766C6 11.893 6.35337 10.8927 7.0601 9.97561C7.76683 9.05852 8.72828 8.33331 9.94444 7.79999C11.1606 7.26666 12.4843 7 13.9154 7Z" fill="black"/>
</svg>
